<?xml version="1.0" standalone="no"?><!DOCTYPE svg PUBLIC "-//W3C//DTD SVG 1.1//EN" "http://www.w3.org/Graphics/SVG/1.1/DTD/svg11.dtd"><svg t="1653031611118" class="icon" viewBox="0 0 1024 1024" version="1.1" xmlns="http://www.w3.org/2000/svg" p-id="4039" xmlns:xlink="http://www.w3.org/1999/xlink" width="128" height="128"><defs><style type="text/css">@font-face { font-family: feedback-iconfont; src: url("//at.alicdn.com/t/font_1031158_u69w8yhxdu.woff2?t=1630033759944") format("woff2"), url("//at.alicdn.com/t/font_1031158_u69w8yhxdu.woff?t=1630033759944") format("woff"), url("//at.alicdn.com/t/font_1031158_u69w8yhxdu.ttf?t=1630033759944") format("truetype"); }
</style></defs><path d="M383.414 225.893a16.294 16.294 0 1 0 33.348 0 16.294 16.294 0 1 0-33.348 0zM553.82 225.893a16.294 16.294 0 1 0 33.348 0 16.294 16.294 0 1 0-33.348 0z" p-id="4040" fill="#0969da"></path><path d="M687.468 304.705c22.058-5.492 38.426-25.375 38.426-49.132 0-27.995-22.694-50.689-50.689-50.689-2.293 0-4.534 0.206-6.747 0.5-22.02-80.615-95.734-139.892-183.334-139.892-87.741 0-161.557 59.466-183.445 140.283-3.02-0.561-6.122-0.89-9.304-0.89-27.995 0-50.688 22.693-50.688 50.688 0 27.994 22.693 50.688 50.688 50.688 3.182 0 6.284-0.33 9.304-0.89 21.888 80.817 95.704 140.283 183.445 140.283 29.564 0 57.533-6.773 82.48-18.818a934.356 934.356 0 0 1 10.866 142.006c0 104.131-17.107 204.267-48.655 297.754 125.032-5.673 229.975-88.374 268.528-201.765-34.94 130.95-154.35 227.416-296.311 227.416-163.553 0-297.186-128.037-306.174-289.343a17.803 17.803 0 0 0 1.463-7.08c0-9.873-8.004-17.877-17.877-17.877s-17.877 8.004-17.877 17.877c0 0.792 0.07 1.567 0.169 2.332a326.403 326.403 0 0 0-0.17 9.775c0 193.505 156.867 350.37 350.372 350.37s350.37-156.866 350.37-350.37c0.003-129.533-70.32-242.596-174.84-303.226z m-362.837-10.03c-3.042-11.874-4.848-24.242-5.17-36.986a84.282 84.282 0 0 1-0.108-4.267c0-0.14 0.01-0.278 0.01-0.418a84.18 84.18 0 0 1 0.098-3.848c0.036-1.419 0.036-2.846 0.107-4.255h0.218a82.315 82.315 0 0 1 7.215-26.277c13.152-28.39 41.89-48.088 75.237-48.088 42.9 0 78.186 32.591 82.452 74.365h0.868c4.266-41.774 39.553-74.365 82.452-74.365 32.681 0 60.926 18.925 74.422 46.404a82.303 82.303 0 0 1 8.03 27.96h0.217c0.072 1.41 0.072 2.837 0.108 4.256 0.064 1.275 0.091 2.559 0.097 3.848 0 0.14 0.01 0.278 0.01 0.418 0 1.431-0.036 2.854-0.108 4.267a165.804 165.804 0 0 1-5.596 38.665c-18.911 70.732-83.371 122.84-160.067 122.84-77.299 0-142.157-52.937-160.492-124.52z" p-id="4041" fill="#0969da"></path></svg>