<?xml version='1.0' encoding='utf-8'?>
<svg xmlns="http://www.w3.org/2000/svg" width="1049.19mm" height="677.998mm" version="1.1" style="shape-rendering:geometricPrecision; text-rendering:geometricPrecision; image-rendering:optimizeQuality; fill-rule:evenodd; clip-rule:evenodd" viewBox="0 0 55124 35622"> <defs> <style type="text/css">  .fil0 {fill:#333333} .fil1 {fill:#DEDEDE}  </style> </defs> <g id="Vrstva_x0020_1"> <metadata id="CorelCorpID_0Corel-Layer"/> <g id="_1558731408"> <rect class="fil0" width="55124" height="35622"/> <g> <path class="fil1" d="M30094 33730c1325,103 660,12 1535,-44 299,-19 584,13 863,-5 450,-30 78,-125 696,-148l49 538 -3295 209c16,-150 80,-418 152,-550zm25030 -10733l0 329c-119,92 -307,156 -408,156 -230,-1 -287,-103 -636,315 36,50 8,23 68,72l659 423c108,66 212,138 317,215l0 1011c-650,-492 -1328,-971 -2040,-1313 -355,-171 -691,-333 -1022,-513 -340,-186 -605,-261 -1027,-510 -180,-106 -1797,-750 -2122,-781 -216,-21 -71,-36 -188,41 -41,172 -58,2419 -40,2677 32,479 -16,1012 -27,1434 -11,461 58,986 47,1490 -21,970 -65,1974 -41,2937 16,608 -25,2461 107,2909l521 71c1399,70 2761,37 4168,55 -78,-455 -454,-648 -499,-1077 575,19 470,555 811,840l479 -726c621,113 115,685 9,963 190,19 509,35 864,56l0 709c-532,-14 -1062,-44 -1313,-50 -1835,-48 -3726,3 -5556,-62 -3007,-108 -6069,131 -9171,89 -2393,-31 -4858,-146 -7240,86 -1168,114 -2331,137 -3504,246 -1124,105 -2437,30 -3620,89 -2426,122 -4985,30 -7410,-1 -1243,-16 -2491,16 -3697,-73 -1722,-127 -3513,-301 -5248,-291 -659,4 -1168,-71 -1807,-93 -595,-21 -1193,-57 -1764,-84 -954,-46 -1834,11 -2756,-50l-1561 -333c-207,-65 -143,-73 -337,-116 -61,-14 -106,-20 -140,-29l0 -185c553,-25 1510,157 2085,177 815,27 1631,-4 2447,3 -23,-130 -90,-135 -142,-451 -57,-348 -389,-821 -300,-1492 91,47 251,223 305,304 95,142 147,326 200,486 11,-9 25,-40 30,-32l172 -318c51,-130 72,-252 106,-387 154,369 200,442 65,878 100,-85 31,13 119,-152 88,-162 84,-396 251,-442 14,22 13,10 36,77l21 61c2,10 6,23 7,33 30,201 -145,461 -224,639 -110,247 -337,570 -388,796l1584 85c17,-590 -64,-1414 -131,-1990 -132,-1136 -190,-2847 -205,-4019 -9,-672 -91,-1430 -88,-2089 -400,120 -1771,976 -1927,1004 118,75 140,36 160,200 -62,49 -45,45 -150,57 -45,-97 -14,-60 -26,-114l-24 -97c-362,221 -603,312 -944,591l-1739 1375c-256,210 -658,585 -965,598 -275,-441 102,-572 428,-861 147,-130 809,-632 851,-733 19,-46 -127,-2662 -151,-2973 -114,110 -225,389 -321,522 -102,142 -73,103 -185,141 -20,7 -109,38 -122,41l-66 11c-92,5 -47,8 -98,-15 -40,-209 360,-958 468,-1138 333,-553 275,-711 280,-1472 -190,78 -212,241 -323,441l-510 938c-96,160 -80,106 -223,144 -237,64 -161,36 -209,-19 -160,-185 1134,-2303 1209,-2451 157,22 113,57 313,123 150,50 185,67 306,146 301,196 1368,1159 1441,1384l-118 117c-513,-25 -841,-800 -1269,-912l-24 749c186,169 996,560 1130,1193 -306,2 -796,-644 -1099,-787 -6,531 98,1219 61,1695 -21,267 46,1400 120,1642 584,-360 661,-585 1720,-1206 308,-181 618,-377 946,-543 241,-122 908,-361 1025,-469 55,-148 67,-1655 43,-1920 -182,200 -164,523 -439,629 -167,-41 -334,-243 -326,-426 2,-35 196,-361 251,-474 172,-359 338,-704 541,-1039 196,-322 403,-669 574,-1007 286,-563 569,-956 853,-1496 94,-180 182,-297 284,-484 279,-512 481,-1053 802,-1546 120,-187 190,-332 301,-514l661 -909c170,3 239,46 353,115 253,153 249,419 363,669 432,948 942,1870 1515,2736 338,510 648,1192 999,1660 341,-116 778,-406 1158,-568 712,-304 1230,-401 1947,-623 1145,-355 2345,-602 3527,-805 751,-130 2530,-214 3319,-168 566,33 1145,66 1680,87 86,-326 309,-577 424,-886 -253,-174 -796,-433 -885,-754 375,-87 566,199 881,308l7 -468c-430,-110 -496,-694 -312,-928 316,-400 506,-170 1005,-102 120,174 279,392 248,693 -27,256 -285,403 -579,399 40,349 16,572 -32,651l42 50c189,-38 863,-1138 901,-406 -499,323 -91,312 -777,648 -139,68 -73,-22 -99,85 -154,261 447,404 453,943 795,73 1952,413 2720,639 415,121 820,275 1255,418 443,147 797,307 1187,482l2183 1159c168,102 947,614 1025,636l1231 -396c60,-46 82,-184 113,-266 103,-273 240,-538 295,-831 -144,-138 -364,-183 -549,-314 -121,-86 -395,-256 -378,-430 373,-97 644,260 945,345 -43,-665 -380,-222 -417,-824 -56,-917 1092,-660 1155,7 50,537 -423,256 -392,854 233,-103 409,-488 636,-532 227,186 182,318 -43,496 -239,188 -203,274 -575,330 68,333 299,495 537,701 7,6 19,17 29,24 669,-99 1284,-293 1987,-364l100 -247c94,-250 293,-482 349,-729 -214,-140 -904,-626 -810,-924 104,20 280,148 389,225 179,126 240,234 447,287 -9,-179 13,-412 -57,-544 -52,-97 -211,-195 -245,-287 -137,-366 250,-838 756,-489 100,69 168,189 211,324 76,237 18,256 -84,391 -27,35 -109,145 -116,151l-219 103 80 329c64,103 -32,-1 82,93 122,-137 242,-233 360,-357 117,-124 178,-303 368,-328 -66,322 81,364 -160,629 -308,338 -792,406 -334,866 80,81 219,290 329,329 778,-25 1351,-81 2178,-40 37,-847 28,-2400 261,-3091 151,55 207,232 317,350 774,-18 1570,-98 2348,-127 953,-36 1850,-342 2793,-254 311,28 397,186 573,357 74,71 75,83 112,199 141,434 168,1820 135,2312 -15,223 22,384 22,607 549,-109 1718,417 2261,529 -100,-396 -737,-1667 -499,-2015 180,408 344,836 663,1159l291 -756c17,86 33,167 51,255 70,354 37,13 86,211 -19,50 -156,654 -158,727 198,-286 486,-1129 628,-1262l90 91c11,15 61,97 68,110 250,436 -210,882 -419,1213 -59,93 -80,147 -134,224l-177 281c252,61 885,378 1137,501 297,146 923,489 1181,553 -36,-378 -154,-645 -196,-923 198,-29 250,8 327,138l156 396c65,-47 106,-78 174,-152 139,-151 199,-363 431,-406 6,-1 21,-1 26,-1 5,-1 21,2 25,2 4,1 17,2 24,5 89,233 -140,92 -191,407 155,-32 297,-133 464,-125 38,2 67,3 88,4zm-15790 11034c81,-221 45,-61 173,-278 52,-88 91,-181 127,-281 130,123 115,121 221,261l213 261c5,-8 15,24 22,39l-756 -2zm-10233 -1014c186,198 484,342 371,723 -235,790 -1345,516 -1010,-231 164,-365 305,-350 639,-492zm5568 118c-22,1013 -840,983 -999,821 -152,-154 -51,-612 56,-787 122,-202 347,-285 634,-340 78,125 161,227 309,306zm-25452 1055c18,-547 69,-1120 13,-1688 -63,-629 17,-1034 69,-1608l1562 68 41 3273 -1685 -45zm18935 -577c-165,-50 -239,-109 -424,-169 -590,-190 -620,-421 -523,-1010 66,-394 176,-507 432,-706 764,-593 576,-437 1497,-723 483,-150 3303,-589 3807,-590 517,-1 548,0 859,247 207,165 571,786 1082,1084 547,320 1368,48 1574,561 164,408 -71,601 -367,696 -153,50 -765,174 -890,181 -118,-144 -293,-345 -451,-442 -915,-564 -1189,-234 -1484,632 -314,22 -564,-9 -863,-43 -644,-73 -1775,111 -2419,146 -300,-663 -386,-495 -691,-653 -154,-81 -377,-281 -833,226 -180,199 -131,274 -224,446 -75,140 -34,61 -82,117zm-9767 882c-1380,95 -1066,-62 -1056,-350l-48 -2510 1112 76 -8 2784zm20859 -3263c237,-103 338,-79 484,101 105,130 62,325 -54,463 -279,331 -653,9 -430,-564zm5259 2695c84,-380 126,-3349 47,-3726 278,0 679,70 895,41 217,-30 574,-2 733,60l45 3571 -1720 54zm-29049 -9146c541,-42 1259,-18 1773,-81 332,-40 592,23 890,-10 144,-16 1494,3 1584,102 79,86 44,685 53,859 63,1225 196,4274 155,5246 -38,919 -94,2777 -42,3632l-931 -24c13,-437 92,-755 63,-1261 -125,-2139 284,-1898 -1239,-2028 -219,-18 -290,-72 -541,-77 -4,-9 -8,-23 -10,-27 -2,-4 -9,-20 -12,-25l-68 -78c-97,78 -181,72 -226,230l-34 2316c7,341 -51,595 -46,928l-1415 -23c-22,-398 42,-807 98,-1152 103,-621 94,-3095 76,-3729 -23,-820 -30,-1610 -48,-2394l-80 -2404zm-6908 9409l-1660 -19c-22,-498 37,-961 -24,-1426 -62,-467 -15,-1002 -26,-1494 -5,-248 -52,-540 -58,-726 -5,-176 34,-485 38,-720 15,-1115 -32,-1805 -79,-2846l-138 -2936c32,-960 -134,-1198 -138,-1365 274,-26 1217,171 1512,206 742,89 3844,264 4417,461l51 20c-85,889 -68,1926 -54,2847 14,899 145,1787 189,2663 44,871 42,1923 131,2757 98,905 7,1834 10,2746l-1153 -68c2,-421 24,-3256 -38,-3407 -190,-463 -1465,-406 -2123,-430 -262,-10 -563,-122 -722,-75 -61,48 -20,360 -33,512 -60,652 -20,736 -15,1400 4,528 -21,1381 -87,1900zm27239 -11920c22,-58 21,-99 73,-162 118,-144 -8,-49 168,-90 90,238 37,244 -241,252zm-28974 -190c89,-191 246,-491 357,-653 140,-203 277,-364 404,-591 530,-949 1614,-3422 2058,-3775l1525 2862c260,401 429,815 797,1373 166,251 758,1170 820,1388 -521,-7 -2146,-279 -2961,-325l-2306 -152c-217,-1 -529,-3 -694,-127zm24378 2047c-348,171 -527,351 -842,513 -768,395 -1834,984 -2483,1535l-1181 853c-156,116 -218,103 -395,202 -33,522 542,105 736,-46 497,-386 1071,-736 1606,-1104 286,-197 505,-338 809,-502 431,-233 924,-431 1319,-712 547,-387 3483,-1449 4368,-1689 736,-201 1396,-332 2168,-501 377,-82 774,-103 1179,-180l1203 -148c416,-60 798,-89 1218,-134 262,-29 416,-20 671,-21 197,0 364,-41 565,-87 46,1000 -82,2003 -94,3001 -34,2989 -367,5940 -141,8910 -260,28 -1260,92 -1413,-54 -243,-232 -602,-534 -686,-870l377 -257c306,-277 823,-580 845,-897 -511,-191 -840,530 -1229,725 -29,-389 -10,-374 198,-557 75,-65 104,-89 167,-191 22,-35 110,-192 114,-204 99,-266 -323,-693 -557,-769 -275,-88 -715,168 -756,533 -95,839 396,402 420,1008 -304,-117 -733,-485 -1046,-330 80,342 816,466 984,717 103,153 -36,376 -128,554 -101,198 -168,398 -281,591l-3726 -35c114,-467 262,-240 1031,-419 164,-39 362,-126 449,-220 572,-617 18,-1338 -391,-1804 -174,-198 -195,-121 -477,-196 -482,-126 -701,-128 -993,-412 -104,-101 -234,-238 -319,-361 -114,-165 -153,-265 -278,-397 -823,-874 -2319,-483 -3349,-337 -1093,156 -2238,357 -3097,974 -789,566 -1356,2210 -615,2810 479,388 346,275 1038,235 57,314 154,272 215,533l-5188 137c147,-311 742,-330 784,-700 -379,12 -436,169 -676,271 47,-182 228,-379 210,-569l-23 -63c-132,107 -340,619 -422,790 -109,-71 -106,-108 -194,-220 -114,-146 -281,-547 -412,-610 53,121 46,161 36,320 -229,-96 -175,-230 -293,-65 -65,-19 -13,-36 9,40 89,300 322,567 415,827l-2251 -6 129 -4101c5,-701 -7,-1423 -22,-2125l-91 -3072c-2,-611 -179,-548 -213,-763 -15,-95 87,-127 -145,-242 -503,-249 -3817,-109 -4480,-10 -216,33 -269,117 -399,84 -236,-60 10,-95 -332,-48 11,413 -43,826 -48,1251l98 3841c66,1720 -3,3395 7,5131l-1784 -118c221,-837 -4,-1880 71,-2709 158,-1734 57,-1061 18,-2756 -6,-257 -47,-452 -67,-705 -15,-197 37,-414 35,-651 -6,-482 -28,-961 -23,-1445 4,-464 40,-1015 33,-1438l-54 -1348c158,151 432,507 682,143 75,-245 -808,-1422 -897,-1739 134,-155 365,-225 554,-290 168,-58 171,-28 338,-72 107,-28 161,-70 266,-98 422,-112 889,-172 1302,-278 223,-58 391,-125 625,-185l3282 -605c1669,-179 2697,-126 4408,-52 676,29 1959,319 2629,484l978 239c86,26 198,53 291,74 457,108 774,204 1204,330 777,229 1464,569 2203,914l1814 940c120,64 130,51 232,130 -93,115 -301,170 -457,230l-1385 647zm7979 -2529c41,-174 58,-198 187,-306 137,90 178,116 202,291l-389 15zm-3740 -1741c63,-34 373,9 465,84 273,223 -125,766 -466,375 -81,-93 -205,-346 1,-459zm-10618 -487c58,-144 72,-154 186,-232 97,101 215,213 267,367l-453 -135zm14158 -378c199,67 223,16 331,216 198,367 -379,413 -443,150 -42,-168 73,-182 112,-366zm3864 232c835,14 1843,50 2702,-59l1906 -154c258,-10 376,-74 608,-114 -69,1906 -177,5964 -46,7603 102,1281 5,2428 45,3668 39,1222 112,2476 124,3707l-1375 -5 -52 -2710c8,-398 -47,-502 -68,-814 -39,-560 -379,-454 -810,-536 -148,-28 -186,-60 -365,-91 -356,-62 -303,92 -743,25 -306,-46 -508,-48 -739,17 -147,1049 42,2185 -36,3167 -25,310 25,693 33,1031l-1675 46 -52 -139c-5,-34 -3,-134 1,-169 22,-155 52,-117 73,-283 22,-183 3,-475 5,-672 13,-932 85,-1769 145,-2666 57,-859 117,-792 157,-1193 184,-1853 115,-2364 147,-4002l31 -927c68,-218 -83,-114 151,-138 -186,-78 -169,-196 -161,-464l-6 -4128zm-18129 -2093c47,-295 248,-365 495,-299l17 246c-172,129 -280,165 -512,53z"/> <path class="fil1" d="M17161 11350c37,-126 77,-207 128,-312 475,-991 1498,-3591 2009,-4015l111 130c32,53 43,92 77,150 545,949 1043,1960 1626,2846 126,191 258,306 175,541 -5,15 -174,649 -204,586 -4,-8 -15,23 -24,34 -98,-61 -30,-6 -115,-92 -19,-19 -42,-50 -62,-75 -148,-188 -303,-327 -587,-301 -224,20 -287,298 -558,609 -224,-220 -196,-353 -804,-434 -159,158 -164,203 -265,399 -290,-167 -81,-360 -665,-463 -200,-35 -268,45 -362,164 -53,68 -73,105 -110,161 -3,3 -54,78 -56,79 -46,56 -23,28 -76,71l-238 -78zm-17161 -1920l0 -655c93,-201 227,-431 314,-717l668 -1769c486,-979 730,-1905 1291,-2909 71,-127 134,-335 200,-423 724,208 1015,1327 1684,2053 99,107 85,111 151,211 82,122 88,93 188,218l3011 4648c93,-64 15,18 83,-74l161 -341c80,-149 144,-285 224,-451 155,-317 291,-584 441,-871l892 -1775c148,-297 309,-583 467,-843 100,-165 157,-261 246,-429 241,-450 402,-900 644,-1342 111,-203 424,-733 444,-907 300,40 436,-48 656,133 161,134 269,271 368,531l547 1257c454,990 664,1304 1123,2446 176,439 330,829 516,1244 187,419 409,788 536,1274l1095 2468c159,-141 1590,-3631 1804,-4117 143,-327 319,-675 470,-973 161,-320 376,-639 520,-974 86,-201 125,-332 337,-311 686,70 783,635 1083,1176 99,179 172,275 264,454 332,643 760,1214 1064,1874 229,497 601,923 831,1430l542 948c92,177 166,308 258,466l1101 1880c182,301 148,189 129,540 -173,29 -308,77 -429,-15 -187,-142 -287,-430 -410,-624l-1732 -2874c-109,-128 -34,-54 -151,-114 -87,308 -246,496 -391,717 -313,-13 -406,-248 -535,-468 -65,-114 -32,-60 -97,-122 -169,78 -497,645 -581,798 -528,37 -432,-272 -729,-471l-174 208c-72,109 -96,120 -188,195 -318,105 -590,-444 -841,-537 -303,438 -266,635 -693,331 -106,-75 -215,-112 -363,-148 -140,182 -661,1540 -839,1889 -71,136 -116,242 -173,371l-920 2376c-92,253 -540,1953 -939,1281 -183,-309 15,-602 141,-912 170,-415 280,-805 429,-1243 250,-735 657,-1639 945,-2393 -74,-156 -146,-202 -239,-434 -125,-314 -251,-649 -422,-935 -82,-137 -176,-332 -240,-482 -268,-625 -629,-1275 -802,-1971 -152,19 -236,49 -356,82 -194,53 -226,11 -372,43 -405,87 -828,880 -1274,401l-225 -195c-198,168 -203,449 -506,500 -297,50 -475,-187 -632,-388 -366,201 -633,761 -1040,317 -333,-364 -384,-710 -401,-1325 -121,51 -80,25 -157,162l-801 1548c-722,1486 -1544,3070 -2166,4612 -66,162 -119,355 -186,504l-255 395c-238,-16 -419,-227 -363,-496 140,-678 1090,-2744 1417,-3411 163,-334 522,-1003 600,-1366 -17,-111 -166,-199 -234,-290 -534,-709 -915,-1503 -1428,-2227 -240,142 -388,342 -716,425 -512,130 -621,11 -947,-181 -361,-85 -558,811 -1348,-82l-98 -97 -173 204c-61,88 -106,177 -147,243 -699,107 -899,-474 -959,-1056 -141,145 -412,770 -491,1024l-320 863c-49,144 -31,140 -168,206 -105,-71 -181,-140 -234,-208zm9828 -28c-70,-270 -244,-1434 -211,-1734 40,-352 514,-957 666,-1286 208,-449 1088,-2322 1276,-2600 47,43 31,14 72,80l228 542c98,216 175,412 279,623 209,428 381,810 590,1217l1038 2570c-354,-51 -518,59 -882,91 -322,29 -334,213 -634,318 -160,-72 -140,-123 -291,-168 -512,-154 -510,46 -838,259 -99,-37 -49,-14 -165,-75 -580,-307 -897,91 -1128,163zm-7701 -4083c88,-188 143,-183 218,-322l337 -706c202,-324 8,-183 247,-309l584 955c476,729 1502,1943 1785,2687 -169,154 -737,467 -970,503 -439,-478 -1058,-133 -1266,-89 -79,-256 -209,-415 -450,-478 -415,-106 -493,4 -776,166 -16,-413 -38,-737 -309,-888l600 -1519z"/> <path class="fil1" d="M50008 6829c75,-265 279,-607 337,-808 48,-162 61,-325 119,-478l683 -1525c38,-81 43,-103 79,-195l101 -168c121,122 609,904 702,1083l-104 177 125 200c55,-36 -4,8 60,-52 8,-8 53,-36 58,-57 6,-20 21,-22 32,-33 69,197 329,497 451,697 135,223 363,483 450,705 -408,-66 -516,131 -803,732 -194,-65 -103,-17 -241,-168 -353,-387 -565,-6 -640,57 -124,-35 -254,-112 -368,-135 -162,-32 -302,42 -405,44 -121,3 -218,-82 -324,-123 -200,-76 -77,-16 -312,47zm5116 2008l0 246c-486,160 -668,-373 -905,-736 -202,-308 -552,-860 -657,-1190 -257,-60 -185,-2 -327,-170l-146 -114c-331,219 -456,634 -949,548 -32,-62 -32,-80 -64,-128 -6,-9 -12,-21 -18,-29l-122 -109c-114,220 -302,463 -532,257 -116,-104 -69,-88 -213,-171l-191 100c-119,42 -321,53 -430,-2l-101 -138c-320,177 -272,6 -588,-120 -40,46 -4,-10 -60,81 -550,895 -845,1953 -1338,2861l-726 1443c-254,498 -665,884 -780,1458 1288,-161 2620,-209 3966,-74 1082,108 1755,41 2854,261 143,29 763,163 870,212 309,140 53,460 -105,562 -335,215 -451,19 -798,-37 -573,-94 -1238,-186 -1832,-203 -578,-16 -1266,-13 -1888,-90l-2061 17c-558,12 -1272,173 -1766,319 -875,258 -1720,277 -2565,599 -2087,793 -3118,1163 -5017,2350l-1839 1280c-398,315 -391,345 -544,-105 176,-106 296,-255 462,-382l1027 -735c93,-72 161,-122 261,-191l247 -253c-476,-273 -1033,-624 -1608,-831 -528,-190 -1339,-528 -1845,-592 -327,-41 -618,-223 -957,-268 -394,-52 -758,-33 -1170,-47 -394,-13 -726,-87 -1087,-138 -874,-121 -2730,-58 -3531,76 -385,65 -784,51 -1113,110 -168,29 -353,81 -512,105l-1521 342 -1742 701c-278,123 -553,348 -858,363 -18,-134 -44,-139 0,-269 4,-11 9,-23 14,-33 58,-124 393,-238 561,-385l189 -123c78,-37 148,-64 218,-95 147,-65 328,-140 486,-191 656,-208 1274,-541 1969,-693 808,-177 1285,-362 2184,-446 188,-18 366,-53 544,-84 738,-127 2488,-136 3252,-85 391,26 756,114 1154,156 1088,115 1164,-14 2282,373 971,335 2393,817 3224,1427 131,96 278,227 386,286 305,-130 687,-379 1016,-557 875,-474 1079,-675 2120,-1090 185,-73 375,-160 563,-248 464,-216 1260,-489 1759,-634 524,-152 1111,-221 1670,-367 368,-96 371,-352 517,-706 182,-443 317,-722 511,-1115 181,-366 373,-686 544,-1040l1009 -2196c180,-421 330,-708 530,-1096 695,-1340 1217,-2797 1928,-4126 16,-31 55,-88 70,-120 36,-77 26,-85 51,-154 159,13 181,40 298,145 196,174 228,273 352,504 392,731 1692,2403 2104,3134l457 854c239,542 709,1126 857,1536z"/> <path class="fil1" d="M37334 6944c20,470 -249,893 -467,1172 -300,385 -598,649 -993,466 -1019,-472 -1300,-191 -2021,-41 -285,60 -1749,-243 -2044,-270 -628,-57 -953,282 -898,-640 42,-717 256,-631 909,-730 600,-90 621,-263 790,-781 224,92 248,148 602,145 288,-2 341,-26 633,-5 448,32 901,-180 1305,-38 949,334 423,441 2184,722zm-12675 -261c-52,-480 -158,-712 24,-1215 147,-407 236,-98 403,-234 83,-68 174,-312 239,-434 561,-1064 616,-1385 1468,-922 947,515 818,507 1983,810 596,154 557,780 1397,478 205,-74 253,-39 553,-44 450,-9 931,-203 1098,148 156,329 54,853 -176,1062 -67,61 -997,236 -1151,259 -212,32 -442,-18 -634,-30 -256,-15 -364,76 -549,105 -148,22 -471,-30 -665,-40 -218,-11 -504,35 -680,18 -329,-31 -357,-392 -995,-402 -159,-2 -384,98 -561,145 -229,62 -359,64 -610,80 -456,28 -718,168 -1144,216zm2639 38c360,470 636,475 1398,400 374,-38 558,70 903,53 358,-17 400,-177 772,-94 -7,410 -113,677 61,1067 413,926 1249,574 1734,613 240,19 1561,387 2119,294 301,-50 666,-250 991,-206 345,48 525,251 898,323 481,93 724,21 996,-208 403,-340 842,-742 968,-1468 200,-1152 -704,-1049 -1220,-1088 -1350,-100 -1277,-860 -2847,-723 -441,39 -712,3 -1178,7 -635,6 -180,-60 -745,-756 -81,-99 -51,-94 -164,-145 -512,-229 -1171,-115 -1665,-89 -426,23 -577,317 -920,51 -884,-686 -1053,-426 -1640,-798 -151,-96 -190,-156 -359,-225 -159,-65 -293,-105 -459,-173 -373,-152 -450,-308 -919,-341 -399,-28 -589,172 -746,448 -141,249 -326,490 -455,762 -296,627 -255,-122 -600,530 -236,446 -308,1682 78,2047 518,491 825,10 1957,-72 461,-34 660,-102 1042,-209z"/> <path class="fil1" d="M43821 3700c78,-315 409,-452 637,-643 187,-156 159,-148 435,-202 180,-36 333,-73 549,-57 918,64 1070,-211 1691,-65 428,100 449,-11 563,29 6,12 12,17 14,39 1,22 115,313 -91,616 -1106,1626 -1579,590 -1856,424 -132,-80 -397,-217 -581,-223 -258,-8 -430,114 -642,162 -280,63 -477,-29 -719,-80zm1840 523c465,611 1216,1001 2033,398 194,-143 346,-357 468,-563 318,-537 174,-1148 -254,-1460 -1184,-861 -1719,-414 -2544,-465 -971,-59 -1056,96 -1584,476 -382,275 -846,612 -443,1262 214,347 1171,583 1477,569 361,-16 434,-223 847,-217z"/> <path class="fil1" d="M10262 23885c124,-43 257,-45 409,-50 468,-14 318,80 387,902 50,591 58,1050 -51,1624l-878 -55 133 -2421zm812 2748c184,-379 169,-930 171,-1436l-52 -1536c-171,-88 -391,-64 -574,-46 -155,15 -485,34 -526,52 -93,262 -20,1104 -50,1486 -35,433 -108,958 -85,1414l1116 66z"/> <path class="fil1" d="M8558 26071c-368,7 -514,-32 -827,-109 11,-890 0,-1410 150,-2236 333,15 414,-33 689,89 136,355 38,1814 -12,2256zm78 259c34,-320 123,-426 127,-861 18,-1790 360,-2114 -977,-1975 -186,241 -341,2684 -127,2755 65,22 838,71 977,81z"/> <path class="fil1" d="M33377 31115c-60,746 -1640,924 -1949,607 -560,-576 1542,-777 1845,-666 89,33 48,19 104,59zm269 -171c-249,-146 -2359,-202 -2577,557 -147,512 792,651 1655,428 531,-137 982,-351 922,-985z"/> <path class="fil1" d="M16238 27886c56,-913 176,-1373 216,-1972 352,18 520,-76 579,307l12 738c-39,1196 118,907 -807,927zm-214 180c156,55 841,77 1051,65 219,-651 129,-1540 144,-2304 -218,-90 -508,-139 -729,-82 -296,77 -202,318 -248,670 -34,265 -103,554 -109,861 -13,651 -128,547 -109,790z"/> <path class="fil1" d="M18271 25994c152,55 377,31 570,65 16,462 133,1501 -81,1808l-51 13c-5,1 -21,4 -27,5l-541 57c7,-452 104,-1612 32,-1932 -301,69 -72,200 -143,985l-76 1001c26,293 278,140 892,118 254,-408 206,-1402 200,-2017 -3,-288 17,-338 -519,-266 -200,27 -160,-3 -256,163z"/> <path class="fil1" d="M28989 31719c421,-256 779,-258 1351,-212 -164,353 -8,460 -503,617 -234,74 -562,66 -791,-101 -7,-5 -25,-8 -30,-24 -5,-17 -20,-17 -36,-26l9 -254zm1670 -402c-155,74 -86,31 -256,13 -1524,-161 -2042,574 -1551,842 381,208 1314,306 1623,-354 110,-235 136,-196 171,-279 2,-7 7,-20 9,-27 2,-7 3,-21 4,-28l0 -167z"/> <path class="fil1" d="M47422 21824c-253,-30 -316,96 -568,8 -7,-12 -15,-44 -17,-38 -2,6 -13,-28 -16,-39 -16,-62 -18,-40 -26,-126l45 -722c-1,-266 40,-727 -76,-898 -316,68 -101,611 -163,1485 -36,501 -88,699 659,583 159,-25 181,-52 162,-253z"/> <path class="fil1" d="M46806 24799c71,19 301,-21 457,-24 270,-3 273,12 264,-253l-537 14 -120 -405c-75,-516 90,-1036 -29,-1400 -240,15 -202,120 -171,352 27,202 27,421 12,624 -39,558 -29,402 82,946l30 111c2,8 6,24 12,35z"/> <path class="fil1" d="M46020 24816c58,-88 98,-127 86,-270 -462,32 -396,-51 -796,-107 -2,-363 160,-1290 140,-1583 -319,-7 -174,152 -222,620 -25,235 -47,514 -76,773 -34,302 -237,476 133,464 302,-10 427,106 735,103z"/> <path class="fil1" d="M45044 27501l823 -46c19,-254 164,-91 14,-288 -170,25 -62,152 -610,117 -1,-341 151,-1781 48,-1941 -229,77 -176,658 -177,1031 0,359 -82,788 -98,1127z"/> <path class="fil1" d="M44370 27397l90 -239c-179,-26 -480,115 -742,-1 -86,-320 165,-1492 61,-1723 -283,48 -123,243 -168,619 -49,402 -62,32 -76,725 -13,693 -375,737 835,619z"/> <path class="fil1" d="M44370 24778l49 -225c-139,-40 -321,59 -585,10 -45,-297 64,-539 62,-854 -2,-260 20,-737 -30,-940 -341,25 -85,415 -190,1360 -42,381 -362,864 694,649z"/> <path class="fil1" d="M45906 21962l59 -97c41,-82 78,-68 -22,-217l-579 29c10,-276 -4,-1493 -59,-1659 -260,34 -145,215 -141,478l-1 1156c-78,432 58,233 426,249 190,8 141,52 317,61z"/> <path class="fil1" d="M46374 27484c219,18 282,-26 483,-34 252,-9 336,36 311,-259l-588 51c-8,-278 57,-643 75,-961 13,-233 149,-755 -72,-830 -174,227 -49,1030 -170,1510 -49,194 -75,291 -39,523z"/> <path class="fil1" d="M44359 21731c-210,-144 -31,145 -625,89 -30,-355 148,-1450 49,-1634 -175,20 -163,16 -169,219 -6,151 1,289 -13,449 -20,240 -31,540 -60,789 -41,350 -15,458 363,412 184,-23 569,-118 455,-324z"/> <path class="fil1" d="M10128 33098c345,-15 200,-185 227,-536 19,-246 93,-436 -4,-671 -127,67 -115,29 -143,217 -26,173 -28,182 -58,334 -36,184 -64,512 -22,656z"/> <path class="fil1" d="M45232 32524c20,-89 88,-787 48,-910 -57,-31 95,-89 -121,-21 -154,48 -104,303 -135,532 -46,341 -172,561 208,399z"/> <path class="fil1" d="M17672 33422c271,5 216,-36 262,-271 31,-153 74,-340 33,-528 -275,-4 -262,481 -295,799z"/> <path class="fil1" d="M20185 10040c38,90 115,192 173,324 99,223 45,275 299,292 32,-201 -19,-246 -97,-414l-223 -342c-157,54 -49,17 -152,140z"/> <path class="fil1" d="M11482 5356c209,-106 267,-743 112,-910 -156,39 -130,177 -144,375 -11,167 -23,425 32,535z"/> <path class="fil1" d="M10865 22094c40,-183 21,-348 17,-558 -5,-235 25,-344 -169,-400 -47,188 -39,308 -21,538 6,83 18,165 32,223 48,193 9,128 141,197z"/> <path class="fil1" d="M10759 6720c168,-98 109,-195 269,-539 85,-183 250,-351 162,-520 -110,62 -558,851 -431,1059z"/> <path class="fil1" d="M9653 21298c238,117 248,-109 259,-342 10,-233 89,-432 -144,-489 -110,327 84,482 -115,831z"/> <path class="fil1" d="M46820 14491c185,150 195,50 306,-72l221 91c212,-198 60,-383 -140,-298 -375,160 -375,69 -387,279z"/> <path class="fil1" d="M51146 6310c49,-114 117,-587 78,-700 -209,86 -173,156 -247,397 -61,198 -49,404 169,303z"/> <path class="fil1" d="M9314 20361c104,-84 326,-673 180,-829 -184,145 -116,144 -182,416 -61,253 -205,299 2,413z"/> <path class="fil1" d="M10774 8903c64,-239 -11,-11 -78,-412 -20,-120 -25,-383 -72,-494 -88,29 -89,-56 -116,176 -18,152 30,713 266,730z"/> <path class="fil1" d="M18098 10910c204,-47 95,-101 103,-349 8,-273 151,-307 47,-478 -238,124 -265,619 -150,827z"/> <path class="fil1" d="M52501 6317c48,-119 -45,-531 -81,-681 -184,60 -168,109 -144,362 21,227 24,297 225,319z"/> <path class="fil1" d="M9302 18613c162,-64 44,152 179,-377 42,-162 83,-324 9,-479 -181,64 -120,170 -149,364 -30,201 -66,287 -39,492z"/> <path class="fil1" d="M2399 6900c277,-102 311,-834 274,-907 -179,39 -80,-91 -166,411 -28,160 -104,307 -108,496z"/> <path class="fil1" d="M11663 6579c138,-68 232,-725 172,-832 -158,52 -181,319 -207,569 -15,157 -26,159 35,263z"/> <path class="fil1" d="M13154 8332c136,-196 -21,-607 -219,-647 -81,160 46,576 219,647z"/> <path class="fil1" d="M19281 8551c165,-176 135,-721 107,-788 -26,10 -146,-46 -165,311 -11,220 -20,392 58,477z"/> <path class="fil1" d="M11482 21887c155,-150 168,-643 -45,-735 -129,126 -48,136 -32,339 6,79 -5,161 1,226 9,85 -16,10 23,102 27,64 28,39 53,68z"/> <path class="fil1" d="M10491 20317c63,-180 18,-244 36,-451 15,-190 102,-267 -84,-342 -89,161 -60,174 -66,387 -7,242 -80,320 114,406z"/> <path class="fil1" d="M19729 9547l15 -525c-13,-152 -6,-73 -45,-136 -167,-45 -123,192 -130,366 -9,232 -98,347 160,295z"/> <path class="fil1" d="M19433 10800c243,-72 102,-46 139,-688 -168,63 -166,48 -182,265 -14,185 -32,297 43,423z"/> <path class="fil1" d="M11347 8849l73 -149c8,-61 -10,-453 -118,-554 -158,54 -98,324 -55,539 33,163 27,105 100,164z"/> <path class="fil1" d="M18755 9410c74,-144 52,-279 91,-469 34,-163 132,-253 161,-400 -139,1 -108,-3 -180,101 -125,180 -214,578 -72,768z"/> <path class="fil1" d="M3361 6522c79,-129 60,-245 65,-434 2,-67 6,-206 -5,-269 -34,-199 -23,-100 -116,-133 -30,70 -91,663 56,836z"/> <path class="fil1" d="M51563 6666l198 4c29,-238 -30,-125 -21,-345 8,-188 73,-150 -52,-262 -179,94 -136,381 -125,603z"/> <path class="fil1" d="M3080 7445c74,-129 -8,-435 -37,-733 -213,-18 -120,177 -81,548 27,256 -7,142 118,185z"/> <path class="fil1" d="M2110 7062c-10,-158 -62,-170 -20,-377 25,-130 100,-194 41,-353 -188,46 -347,751 -21,730z"/> <path class="fil1" d="M18738 9991c230,-91 378,-406 275,-677 -165,94 -130,69 -164,294 -32,206 -126,253 -111,383z"/> <path class="fil1" d="M8564 21425c142,-77 273,-71 300,-430 15,-196 -7,-167 -47,-224 -149,65 -105,123 -138,301 -53,287 -112,141 -115,353z"/> <path class="fil1" d="M11854 7838c158,-25 181,-88 200,-262 46,-436 -33,-380 -130,-407l-70 669z"/> <path class="fil1" d="M10172 8741c92,-155 76,-652 -28,-768 -86,198 -176,602 28,768z"/> <path class="fil1" d="M8546 20355c247,-84 332,-539 271,-653 -179,21 -133,65 -177,252 -38,158 -96,214 -94,401z"/> <path class="fil1" d="M51310 4750c190,9 137,-243 90,-681 -216,63 -144,349 -90,681z"/> <path class="fil1" d="M7739 21668c364,-26 310,-612 310,-613 -126,34 -67,-75 -184,246 -65,179 -99,184 -126,367z"/> <path class="fil1" d="M4028 7269c76,-116 60,-239 27,-404 -33,-164 -33,-244 -192,-265l66 535c52,203 -35,68 99,134z"/> <path class="fil1" d="M9201 22105c12,-191 -28,-112 -56,-266 -30,-162 42,-115 10,-328 -222,104 -304,619 46,594z"/> <path class="fil1" d="M10272 7744c158,-89 251,-493 235,-730 -190,20 -116,124 -160,329 -36,173 -123,270 -75,401z"/> <path class="fil1" d="M50650 6616c93,-112 120,-490 -1,-604 -120,88 -104,90 -100,302 3,207 -15,206 101,302z"/> <path class="fil1" d="M46125 14310c77,104 164,172 342,155 24,-186 -21,-248 -155,-332 -166,44 -150,14 -187,177z"/> <path class="fil1" d="M11302 7396c165,-127 140,-479 61,-599 -199,92 -121,515 -61,599z"/> <path class="fil1" d="M50937 5560c80,-101 68,-185 117,-327 63,-185 106,-199 2,-303 -100,79 -297,550 -119,630z"/> <path class="fil1" d="M9946 19084c110,-90 166,-388 91,-565 -140,53 -95,66 -139,252 -50,212 -96,207 48,313z"/> <path class="fil1" d="M12327 8541c103,-219 104,193 149,-625 -238,27 -193,433 -149,625z"/> <path class="fil1" d="M12115 22385c135,-50 148,-56 115,-239 -57,-314 -143,-274 -161,-283 -65,163 -27,378 46,522z"/> <path class="fil1" d="M11076 20903c102,-138 52,-413 -91,-500 -21,27 -118,-4 -54,244 38,149 38,198 145,256z"/> <path class="fil1" d="M9755 21867l34 10c11,-10 174,-132 98,-370 -57,-180 -30,-71 -121,-94 -34,69 -128,352 -11,454z"/> <path class="fil1" d="M12595 6966c51,-98 35,-139 0,-232 -71,-192 10,-149 -165,-194 -78,171 -57,409 165,426z"/> <path class="fil1" d="M36288 17031c-198,191 275,166 379,148 4,-119 -26,-153 -129,-180 -81,-22 -195,-21 -250,32z"/> <path class="fil1" d="M30610 23191c194,9 215,8 319,-91 -96,-239 -380,-276 -319,91z"/> <path class="fil1" d="M46686 15455c-105,201 -60,302 199,287 29,-229 59,-320 -199,-287z"/> <path class="fil1" d="M35731 16850c90,49 153,-3 174,-67 38,-116 -2,-114 -38,-206 -307,-7 -274,198 -136,273z"/> <path class="fil1" d="M42677 15508c93,-1 44,10 124,-19 163,-60 223,-105 236,-208 -239,-52 -400,-11 -360,227z"/> <path class="fil1" d="M29180 23164c218,407 458,73 192,-110 -114,22 -133,52 -192,110z"/> <path class="fil1" d="M36995 16716c117,13 145,2 224,-37l-2 -227c-233,-36 -292,29 -222,264z"/> <path class="fil1" d="M2854 5176c65,-176 33,-425 -45,-563 -158,94 -69,75 -49,259 22,193 -56,234 94,304z"/> <path class="fil1" d="M30790 22518c349,26 407,-38 209,-243 -163,49 -225,30 -209,243z"/> <path class="fil1" d="M36374 16572c90,114 5,68 180,76l-53 -359 -215 99c4,7 64,154 88,184z"/> <path class="fil1" d="M4943 27705c-111,155 9,391 153,413 29,-210 7,-346 -153,-413z"/> <path class="fil1" d="M42633 16207c99,108 120,101 252,6 110,-79 120,-96 69,-210 -145,28 -269,96 -321,204z"/> <path class="fil1" d="M4525 7584c90,-56 77,20 90,-184 8,-118 -4,-195 -45,-266 -111,19 -133,-18 -122,157l77 293z"/> <path class="fil1" d="M29529 23842c143,203 427,140 193,-163 -146,24 -167,28 -193,163z"/> <path class="fil1" d="M30386 23730c133,18 194,-2 271,-49 -10,-252 -317,-305 -271,49z"/> <path class="fil1" d="M29656 22306l77 168c135,-30 157,-58 203,-168 -79,-150 11,-51 -113,-128 -128,38 -101,14 -167,128z"/> <path class="fil1" d="M30091 23110c81,-108 101,-138 32,-286 -350,-45 -226,204 -32,286z"/> <path class="fil1" d="M41771 15605c-136,37 -111,-17 -166,96 -27,55 41,331 312,-5l-146 -91z"/> <path class="fil1" d="M5523 27544c136,-1 53,9 93,-32 69,-71 32,-96 12,-215 -201,-6 -256,33 -206,210 101,51 -116,39 101,37z"/> <path class="fil1" d="M27859 21809l112 74c112,-61 114,-34 163,-164 -55,-111 -8,-42 -80,-115 -148,18 -180,56 -195,205z"/> <path class="fil1" d="M41517 16348c-172,-63 -267,3 -339,180l245 36 94 -216z"/> <path class="fil1" d="M36095 15993c206,-7 300,-9 249,-203 -103,-44 114,-41 -107,-32 -167,7 -134,144 -142,235z"/> <path class="fil1" d="M51823 5909l-44 -575c-190,132 -106,442 44,575z"/> <path class="fil1" d="M46538 15254c69,-96 134,-347 -55,-273 -168,65 -175,235 55,273z"/> <path class="fil1" d="M31732 23074l124 91c150,-84 156,-34 120,-253 -193,-15 -225,2 -244,162z"/> <path class="fil1" d="M3938 6346c44,-91 47,-95 39,-211 -13,-190 -38,-152 -129,-180 -106,172 -13,315 90,391z"/> <path class="fil1" d="M45486 15313c4,2 31,96 159,5 41,-29 52,-100 66,-150 -163,-103 -318,-117 -225,145z"/> <path class="fil1" d="M45511 14444c24,122 27,122 124,166 300,-153 35,-392 -124,-166z"/> <path class="fil1" d="M43894 15821c52,-28 58,-37 60,-108 4,-121 -3,-33 -47,-95 -116,-31 -198,49 -231,158 46,35 116,101 218,45z"/> <path class="fil1" d="M28577 22329c140,-67 127,-9 194,-158 -67,-135 19,-91 -167,-118 -96,128 -117,138 -27,276z"/> <path class="fil1" d="M34628 15438c-11,153 60,133 213,129l-19 -242c-117,2 -186,4 -194,113z"/> <path class="fil1" d="M5036 26912l199 -60c-10,-159 -32,-195 -193,-185 -64,110 -56,103 -6,245z"/> <path class="fil1" d="M25079 20986c0,0 51,120 173,2 114,-110 -14,-287 -147,-149 -73,74 -49,79 -26,147z"/> <path class="fil1" d="M27355 21649c143,-22 169,-62 223,-208l-157 -56c-89,90 -127,135 -66,264z"/> <path class="fil1" d="M27359 22285c-224,-57 -264,97 -201,162 70,73 99,45 152,16 113,-62 77,-26 49,-178z"/> <path class="fil1" d="M4202 27966c337,-27 322,-301 29,-214l-29 214z"/> <path class="fil1" d="M26296 22081c-187,-84 -286,50 -236,156 50,108 204,18 236,-156z"/> <path class="fil1" d="M43737 15149c155,-33 86,2 160,-116 -31,-134 -19,-71 -99,-158 -86,85 -192,141 -61,274z"/> <path class="fil1" d="M25862 20993l41 172c342,-89 160,-388 -41,-172z"/> <path class="fil1" d="M33123 15396c480,-38 48,-555 0,0z"/> <path class="fil1" d="M35407 16047c-65,40 -49,72 -58,159 140,49 254,28 222,-136 -4,-3 -36,-102 -164,-23z"/> <path class="fil1" d="M44593 14758l35 -177c-32,-10 -45,-34 -52,-23l-166 -25c2,200 -8,204 183,225z"/> <path class="fil1" d="M5374 28548c96,45 61,65 220,-56 -62,-101 -74,-136 -206,-155l-14 211z"/> <path class="fil1" d="M23978 21060c200,24 184,4 232,-109 -109,-139 -256,-89 -232,109z"/> <path class="fil1" d="M2673 28876c84,-106 111,-154 45,-276 -94,42 -115,48 -141,154 -29,110 23,101 96,122z"/> <path class="fil1" d="M34048 15461c-70,160 14,121 14,123 203,55 220,-70 98,-207 -64,29 -72,-8 -112,84z"/> <path class="fil1" d="M4932 27455c83,-139 87,-186 -91,-220 -9,12 -96,43 -39,163 57,121 14,43 130,57z"/> <path class="fil1" d="M3396 27862c238,-33 165,-151 60,-247 -97,71 -122,121 -60,247z"/> <path class="fil1" d="M5655 28077c142,-82 179,-192 -1,-269 -54,129 -92,140 1,269z"/> <path class="fil1" d="M47599 14787c-157,-3 -142,-11 -201,110 86,87 33,66 185,82l16 -192z"/> <path class="fil1" d="M3035 28485c222,-12 213,-141 23,-204l-23 204z"/> <path class="fil1" d="M32275 15304l179 45 -56 -172c-98,37 -84,25 -123,127z"/> </g> </g> </g> </svg>